<?xml version="1.0" standalone="no"?>
<!DOCTYPE svg PUBLIC "-//W3C//DTD SVG 20010904//EN"
 "http://www.w3.org/TR/2001/REC-SVG-20010904/DTD/svg10.dtd">
<svg version="1.0" xmlns="http://www.w3.org/2000/svg"
 width="1127.000000pt" height="550.000000pt" viewBox="0 0 1127.000000 139.000000"
 preserveAspectRatio="xMidYMid meet">

<g transform="translate(0.000000,139.000000) scale(0.100000,-0.100000)">
<path  fill="rgb(240, 195, 23)" d="M130 720 l0 -530 170 0 170 0 0 530 0 530 -170 0 -170 0 0 -530z
m300 0 l0 -490 -130 0 -130 0 0 490 0 490 130 0 130 0 0 -490z"/>
<path  fill="rgb(240, 195, 23)" d="M520 720 l0 -530 170 0 170 0 2 197 3 198 158 -198 158 -197 361 2
361 3 31 90 31 90 161 3 161 2 32 -95 33 -95 198 0 198 0 -176 530 -177 530
-261 0 -260 0 -175 -527 -174 -528 -3 528 -2 527 -170 0 -170 0 -2 -197 -3
-197 -158 197 -157 197 -170 0 -170 0 0 -530z m479 295 c145 -185 155 -195
187 -195 l34 0 0 195 0 195 130 0 130 0 0 -490 0 -490 -139 0 -139 0 -158 197
c-143 178 -162 198 -189 198 l-30 0 -3 -197 -2 -198 -130 0 -130 0 0 490 0
490 144 0 143 0 152 -195z m1524 -272 c85 -258 157 -478 161 -490 l7 -23 -153
0 -154 0 -33 95 -33 95 -188 0 -188 0 -33 -95 -32 -95 -147 0 -147 0 161 490
161 490 232 0 232 0 154 -467z"/>
<path  fill="rgb(240, 195, 23)" d="M2056 817 c-42 -112 -76 -206 -76 -210 0 -4 68 -7 150 -7 83 0 150 2
150 4 0 8 -139 409 -143 413 -3 2 -39 -88 -81 -200z m129 -78 l34 -99 -90 0
-89 0 19 48 c71 179 74 184 83 167 6 -9 25 -61 43 -116z"/>
<path  fill="rgb(240, 195, 23)" d="M3188 1240 c-206 -35 -348 -131 -425 -287 -37 -74 -38 -81 -42 -199
-2 -93 1 -136 14 -180 56 -194 201 -320 420 -365 75 -16 136 -19 363 -19 l272
0 0 154 0 154 -267 5 c-290 5 -322 10 -378 58 -79 70 -73 258 11 316 61 42 90
46 367 51 l267 4 0 159 0 159 -277 -1 c-153 -1 -299 -5 -325 -9z m562 -149 l0
-119 -237 -5 c-264 -5 -322 -16 -387 -69 -58 -47 -70 -80 -71 -183 0 -74 4
-97 22 -132 54 -100 106 -115 426 -121 l247 -4 0 -115 0 -115 -282 4 c-261 4
-289 6 -353 27 -210 69 -328 199 -355 392 -36 256 107 469 356 533 89 22 99
23 377 25 l257 1 0 -119z"/>
<path  fill="rgb(240, 195, 23)" d="M4255 1235 c-337 -63 -509 -312 -440 -638 39 -184 181 -324 390 -383
49 -14 117 -18 363 -22 l302 -4 0 156 0 156 -232 0 c-349 0 -421 22 -454 136
-30 103 -1 200 74 250 50 34 139 44 385 44 l227 0 0 160 0 160 -272 -1 c-180
0 -297 -5 -343 -14z m585 -144 l0 -119 -242 -4 c-262 -6 -303 -12 -380 -63
-83 -55 -109 -206 -54 -318 51 -105 131 -127 462 -127 l214 0 0 -116 0 -116
-282 5 c-230 3 -294 7 -343 21 -245 71 -375 235 -375 474 0 245 165 427 428
472 26 4 165 8 310 9 l262 1 0 -119z"/>
<path  fill="rgb(240, 195, 23)" d="M4920 720 l0 -530 763 0 c820 0 817 0 892 51 48 34 83 92 91 156 15
122 -55 261 -205 406 -45 43 -81 84 -81 92 0 27 40 35 179 35 l141 0 0 160 0
160 -281 0 c-179 0 -297 -4 -326 -12 -65 -16 -126 -77 -147 -147 -42 -144 11
-275 182 -448 50 -51 92 -100 92 -109 0 -8 -12 -19 -26 -24 -15 -6 -209 -10
-480 -10 l-454 0 0 65 0 65 185 0 185 0 0 90 0 90 -185 0 -185 0 0 60 0 60
285 0 285 0 0 160 0 160 -455 0 -455 0 0 -530z m870 370 l0 -120 -280 0 -280
0 0 -100 0 -100 180 0 180 0 0 -50 0 -50 -180 0 -180 0 0 -105 0 -105 300 0
300 0 0 -115 0 -115 -435 0 -435 0 0 490 0 490 415 0 415 0 0 -120z m870 0 l0
-120 -117 0 c-174 0 -225 -21 -208 -87 3 -14 54 -76 114 -137 114 -118 164
-198 177 -282 9 -63 -12 -129 -53 -169 -61 -59 -95 -65 -390 -65 l-263 0 0
114 0 114 138 4 c143 5 187 16 198 50 11 36 -7 71 -70 137 -202 211 -247 323
-183 453 27 56 57 84 106 98 14 5 144 9 289 9 l262 1 0 -120z"/>
<path  fill="rgb(240, 195, 23)" d="M6916 1238 c-58 -16 -121 -81 -140 -147 -42 -144 11 -275 182 -448
50 -51 92 -100 92 -109 0 -26 -47 -34 -196 -34 l-144 0 0 -155 0 -155 283 0
c303 0 345 5 412 51 48 34 83 92 91 156 15 122 -55 261 -205 406 -45 43 -81
84 -81 92 0 27 40 35 179 35 l141 0 0 160 0 160 -287 -1 c-161 -1 -305 -6
-327 -11z m574 -148 l0 -120 -117 0 c-174 0 -225 -21 -208 -87 3 -14 54 -76
114 -137 114 -118 164 -198 177 -282 9 -63 -12 -129 -53 -169 -61 -59 -95 -65
-390 -65 l-263 0 0 114 0 114 138 4 c143 5 187 16 198 50 11 36 -7 71 -70 137
-202 211 -247 323 -183 453 27 56 57 84 106 98 14 5 144 9 289 9 l262 1 0
-120z"/>
<path  fill="rgb(240, 195, 23)" d="M7580 720 l0 -530 170 0 170 0 0 530 0 530 -170 0 -170 0 0 -530z
m310 0 l0 -490 -135 0 -135 0 0 490 0 490 135 0 135 0 0 -490z"/>
<path  fill="rgb(240, 195, 23)" d="M7970 721 l0 -531 389 0 c389 0 512 8 581 36 109 46 163 124 164 238
1 82 -22 135 -76 181 -41 35 -125 75 -158 75 -19 1 -10 8 37 31 110 53 153
113 153 213 0 122 -68 220 -181 261 -49 17 -92 19 -481 22 l-428 4 0 -530z
m912 461 c92 -37 138 -109 138 -216 0 -93 -53 -158 -162 -198 -46 -16 -58 -25
-58 -42 0 -19 12 -25 75 -44 86 -25 147 -73 176 -137 36 -78 14 -180 -50 -238
-75 -68 -95 -70 -568 -75 l-423 -3 0 491 0 491 408 -3 c398 -3 408 -4 464 -26z"/>
<path  fill="rgb(240, 195, 23)" d="M8310 915 l0 -95 133 0 c144 0 188 8 224 42 29 27 31 80 4 107 -31
31 -86 41 -228 41 l-133 0 0 -95z m326 33 c25 -25 11 -64 -27 -77 -18 -6 -83
-11 -145 -11 l-114 0 0 56 0 56 135 -4 c109 -2 137 -6 151 -20z"/>
<path  fill="rgb(240, 195, 23)" d="M8310 500 l0 -120 158 0 c176 0 223 9 264 50 40 40 40 105 1 142 -45
41 -84 48 -259 48 l-164 0 0 -120z m365 66 c37 -16 52 -48 41 -92 -11 -43 -56
-54 -221 -54 l-145 0 0 80 0 80 145 0 c104 0 156 -4 180 -14z"/>
<path  fill="rgb(240, 195, 23)" d="M9160 720 l0 -530 460 0 460 0 0 155 0 155 -290 0 -290 0 0 375 0
375 -170 0 -170 0 0 -530z m310 115 l0 -375 285 0 285 0 0 -115 0 -115 -420 0
-420 0 0 490 0 490 135 0 135 0 0 -375z"/>
<path  fill="rgb(240, 195, 23)" d="M10120 720 l0 -530 475 0 475 0 0 155 0 155 -305 0 -305 0 0 65 0 65
185 0 185 0 0 90 0 90 -185 0 -185 0 0 60 0 60 285 0 285 0 0 160 0 160 -455
0 -455 0 0 -530z m870 370 l0 -120 -280 0 -280 0 0 -100 0 -100 180 0 180 0 0
-50 0 -50 -180 0 -180 0 0 -105 0 -105 300 0 300 0 0 -115 0 -115 -435 0 -435
0 0 490 0 490 415 0 415 0 0 -120z"/>
</g>
</svg>
