<?xml version="1.0" standalone="no"?>
<!DOCTYPE svg PUBLIC "-//W3C//DTD SVG 20010904//EN"
 "http://www.w3.org/TR/2001/REC-SVG-20010904/DTD/svg10.dtd">
<svg version="1.0" xmlns="http://www.w3.org/2000/svg"
 width="625.000000pt" height="139.000000pt" viewBox="0 0 625.000000 139.000000"
 preserveAspectRatio="xMidYMid meet">

<g transform="translate(0.000000,139.000000) scale(0.100000,-0.100000)" fill="#000000">
<path d="M80 1180 c0 -20 7 -20 359 -20 409 0 437 -4 535 -78 66 -50 89 -96
94 -188 5 -89 -21 -156 -83 -213 -38 -35 -88 -56 -202 -87 -29 -8 -13 -60 37
-122 l51 -62 144 0 c138 0 145 1 145 20 0 19 -7 20 -134 20 l-134 0 -36 44
c-20 24 -36 48 -36 53 0 5 23 15 50 22 58 15 144 69 180 114 34 42 59 122 60
188 1 156 -95 269 -265 314 -48 12 -127 15 -412 15 -346 0 -353 0 -353 -20z"
      fill="rgb(240, 195, 23)"/>
<path d="M1210 670 l0 -530 666 2 667 3 31 90 31 90 161 3 161 2 32 -95 33
-95 198 0 198 0 -176 530 -177 530 -261 0 -260 0 -175 -527 -174 -528 -3 152
-3 153 -304 0 -305 0 0 65 0 65 180 0 180 0 0 90 0 90 -180 0 -180 0 0 60 0
60 280 0 280 0 0 160 0 160 -450 0 -450 0 0 -530z m860 370 l0 -120 -280 0
-280 0 0 -100 0 -100 180 0 180 0 0 -50 0 -50 -180 0 -180 0 0 -105 0 -105
305 0 305 0 0 -115 0 -115 -435 0 -435 0 0 490 0 490 410 0 410 0 0 -120z
m1093 -347 c85 -258 157 -478 161 -490 l7 -23 -153 0 -154 0 -33 95 -33 95
-188 0 -188 0 -33 -95 -32 -95 -147 0 -147 0 161 490 161 490 232 0 232 0 154
-467z" fill="rgb(240, 195, 23)"/>
<path d="M2746 903 c-63 -167 -126 -339 -126 -345 0 -5 68 -8 150 -8 83 0 150
2 150 4 0 8 -140 409 -144 413 -2 2 -15 -26 -30 -64z m74 -201 l40 -112 -90 0
-90 0 20 50 c26 66 55 140 64 164 3 10 9 17 11 14 3 -3 23 -55 45 -116z" fill="rgb(240, 195, 23)"/>
<path d="M3540 1078 c-96 -65 -184 -124 -194 -131 -18 -12 -17 -19 34 -150
l53 -136 51 36 c28 21 77 56 108 80 31 24 61 43 67 43 8 0 11 -104 11 -340 l0
-340 185 0 185 0 0 530 0 530 -162 -1 -163 -1 -175 -120z m460 -408 l0 -490
-145 0 -145 0 0 333 c0 422 9 404 -146 288 -59 -45 -111 -78 -114 -74 -7 8
-67 158 -72 180 -2 7 76 66 172 132 l175 121 138 0 137 0 0 -490z" fill="rgb(240, 195, 23)"/>
<path d="M4320 1078 c-96 -65 -184 -124 -194 -131 -18 -12 -17 -19 34 -150
l53 -136 51 36 c28 21 77 56 108 80 31 24 61 43 67 43 8 0 11 -104 11 -340 l0
-340 185 0 185 0 0 530 0 530 -162 -1 -163 -1 -175 -120z m460 -408 l0 -490
-145 0 -145 0 0 333 c0 422 9 404 -146 288 -59 -45 -111 -78 -114 -74 -7 8
-67 158 -72 180 -2 7 76 66 172 132 l175 121 138 0 137 0 0 -490z" fill="rgb(240, 195, 23)"/>
<path d="M4923 1178 c8 -13 112 -164 231 -337 l216 -315 0 -193 0 -193 170 0
170 0 0 194 0 194 188 274 c103 150 207 301 230 336 l43 62 -205 0 -205 0
-108 -160 c-59 -87 -111 -159 -114 -160 -4 0 -55 72 -113 160 l-106 160 -206
0 -206 0 15 -22z m487 -183 c79 -118 116 -165 130 -165 13 0 51 47 131 165
l113 165 153 0 c84 0 153 -2 153 -4 0 -2 -94 -142 -210 -311 l-210 -307 0
-179 0 -179 -130 0 -130 0 0 180 0 181 -202 296 c-112 163 -207 302 -211 310
-6 11 21 13 147 13 l156 0 110 -165z" fill="rgb(240, 195, 23)"/>
<path d="M440 835 l0 -115 160 0 c157 0 161 1 185 25 21 20 25 34 25 85 0 55
-3 65 -29 91 l-29 29 -156 0 -156 0 0 -115z m310 55 c25 -25 27 -86 3 -112
-14 -16 -33 -18 -145 -18 l-128 0 0 75 0 75 125 0 c112 0 127 -2 145 -20z" fill="rgb(240, 195, 23)"/>
<path d="M80 671 c0 -255 0 -261 20 -261 20 0 20 5 18 257 -3 236 -4 258 -20
261 -17 3 -18 -14 -18 -257z" fill="rgb(240, 195, 23)"/>
<path d="M410 355 l0 -175 -165 0 c-158 0 -165 -1 -165 -20 0 -19 7 -20 185
-20 l185 0 0 170 c0 95 4 170 9 170 5 0 82 -76 172 -170 l162 -170 184 0 c176
0 183 1 183 20 0 19 -7 20 -173 20 l-172 0 -165 174 c-155 163 -167 174 -202
175 l-38 1 0 -175z" fill="rgb(240, 195, 23)"/>
</g>
</svg>
